<?xml version="1.0" standalone="no"?>
<!DOCTYPE svg PUBLIC "-//W3C//DTD SVG 20010904//EN"
 "http://www.w3.org/TR/2001/REC-SVG-20010904/DTD/svg10.dtd">
<svg version="1.0" xmlns="http://www.w3.org/2000/svg"
 width="562.000000pt" height="482.000000pt" viewBox="0 0 562.000000 482.000000"
 preserveAspectRatio="xMidYMid meet">
<g transform="translate(0.000000,482.000000) scale(0.100000,-0.100000)"
fill="#000000" stroke="none">
<path d="M3525 3663 c-460 -6 -972 -34 -1026 -57 -69 -29 -93 -66 -312 -486
-39 -74 -83 -155 -97 -180 l-26 -45 -215 -17 c-823 -65 -1229 -120 -1321 -181
-37 -25 -87 -116 -88 -160 0 -16 4 -26 8 -23 29 17 183 26 517 27 l380 2 56
-26 c78 -35 128 -82 202 -195 66 -100 83 -129 245 -397 l97 -160 683 -3 c425
-1 690 2 701 8 10 5 24 22 32 37 21 41 62 111 152 258 182 296 238 363 333
398 39 15 100 21 309 29 427 16 498 7 585 -81 58 -59 89 -111 160 -274 l43
-98 51 3 51 3 0 310 0 310 -569 -4 c-314 -2 -667 -6 -785 -10 l-216 -6 -5
-185 -5 -185 -44 -85 c-91 -178 -125 -228 -179 -262 -37 -23 -38 -23 -472 -26
-469 -4 -486 -2 -544 48 -65 58 -67 72 -64 511 l3 394 153 310 c84 170 163
321 175 333 46 50 59 52 390 62 446 13 566 15 574 6 5 -4 10 -200 13 -434 l5
-427 615 3 c657 2 940 9 953 22 9 8 -14 299 -39 495 -26 208 -65 390 -87 412
-7 7 -40 18 -73 23 -52 9 -761 10 -1319 3z m1218 -192 c18 -17 24 -47 38 -168
10 -82 21 -197 24 -258 11 -169 73 -152 -590 -161 l-550 -7 -20 23 c-19 21
-20 39 -23 276 l-3 254 25 25 c21 20 36 25 83 26 301 8 854 16 917 14 64 -3
83 -7 99 -24z m189 -890 c27 -24 33 -36 33 -71 0 -100 -135 -136 -181 -49 -23
45 -18 87 15 120 40 40 89 40 133 0z"/>
<path d="M2903 3515 c-282 -11 -337 -15 -359 -30 -18 -12 -66 -100 -169 -308
-78 -161 -148 -310 -155 -332 -8 -28 -10 -151 -8 -425 3 -367 4 -386 23 -412
42 -58 45 -58 502 -58 255 0 432 4 455 10 52 15 92 66 168 216 l65 127 0 611
0 611 -95 1 c-52 1 -245 -4 -427 -11z m402 -85 c16 -17 17 -41 14 -274 -5
-291 -3 -286 -85 -291 -27 -1 -230 -4 -451 -6 -391 -3 -403 -3 -418 16 -31 42
-16 87 115 355 88 180 93 189 110 197 17 8 263 18 521 21 163 2 177 1 194 -18z
m40 -765 l0 -30 -137 -3 c-130 -2 -138 -2 -148 18 -9 16 -8 25 1 36 10 12 38
14 148 12 l136 -3 0 -30z"/>
<path d="M5158 3094 c-58 -31 -58 -32 -58 -519 0 -485 1 -494 56 -515 37 -14
194 -12 224 3 14 7 33 28 42 47 16 32 18 75 18 462 0 470 -2 487 -59 521 -38
22 -183 23 -223 1z"/>
<path d="M700 2490 c-107 -4 -204 -10 -215 -15 -73 -26 -110 -53 -140 -100
-40 -63 -85 -160 -85 -184 0 -26 19 -31 115 -31 l83 0 23 38 c66 110 82 114
461 110 281 -3 284 -3 333 -28 40 -20 60 -41 99 -100 27 -41 99 -151 160 -245
l111 -170 118 -3 c65 -1 117 1 117 6 0 23 -336 561 -388 623 -42 49 -102 84
-170 98 -57 12 -301 12 -622 1z"/>
<path d="M4040 2441 c-230 -13 -250 -28 -447 -341 -104 -165 -201 -330 -195
-333 4 -1 47 0 96 3 l90 5 121 194 c144 230 169 261 232 292 46 22 59 23 312
27 173 3 278 0 301 -7 50 -15 78 -48 130 -154 l45 -92 79 -3 79 -3 -6 29 c-11
54 -115 260 -153 302 -73 80 -88 84 -344 86 -124 1 -277 -2 -340 -5z"/>
<path d="M810 2114 c-158 -42 -291 -147 -364 -289 -44 -86 -59 -167 -53 -285
6 -122 25 -179 93 -282 54 -81 103 -125 192 -171 221 -116 482 -77 657 98 305
306 161 822 -260 930 -73 19 -192 18 -265 -1z m252 -273 c107 -52 168 -148
168 -268 0 -302 -398 -399 -545 -132 -26 47 -30 64 -30 134 0 70 4 87 30 134
77 140 241 197 377 132z"/>
<path d="M4080 2114 c-197 -53 -351 -206 -401 -398 -105 -405 247 -768 662
-681 178 38 321 161 395 340 24 59 29 87 32 177 4 120 -8 177 -61 287 -103
212 -390 338 -627 275z m229 -261 c105 -33 201 -161 201 -270 0 -116 -72 -230
-172 -273 -73 -32 -177 -32 -241 -1 -129 63 -196 200 -161 334 26 101 84 167
181 206 60 25 120 26 192 4z"/>
<path d="M106 2050 c-16 -5 -42 -21 -57 -36 -28 -26 -29 -32 -29 -115 0 -84 1
-89 30 -118 37 -37 84 -51 171 -51 l66 0 51 157 c28 86 49 161 46 165 -7 11
-241 9 -278 -2z"/>
<path d="M4855 1981 c-81 -5 -99 -9 -97 -21 7 -29 95 -245 105 -259 9 -11 37
-12 141 -7 144 8 160 12 199 51 26 27 27 31 27 136 l0 109 -137 -2 c-76 -1
-183 -4 -238 -7z"/>
</g>
</svg>
