<?xml version="1.0" standalone="no"?>
<!DOCTYPE svg PUBLIC "-//W3C//DTD SVG 20010904//EN"
 "http://www.w3.org/TR/2001/REC-SVG-20010904/DTD/svg10.dtd">
<svg version="1.0" xmlns="http://www.w3.org/2000/svg"
 width="568.000000pt" height="406.000000pt" viewBox="0 0 568.000000 406.000000"
 preserveAspectRatio="xMidYMid meet">
<g transform="translate(0.000000,406.000000) scale(0.100000,-0.100000)"
fill="#000000" stroke="none">
<path d="M1025 3030 c-165 -10 -333 -23 -373 -29 -40 -6 -90 -11 -110 -11 -21
0 -47 -6 -57 -14 -18 -13 -18 -15 8 -59 l27 -45 -47 -79 c-57 -96 -155 -300
-183 -380 -40 -116 -50 -191 -50 -383 0 -198 -7 -240 -47 -298 -24 -35 -25
-43 -21 -137 8 -163 42 -208 184 -240 99 -22 242 -45 327 -52 l67 -6 0 66 c0
83 29 177 78 253 66 102 157 166 277 196 86 22 125 22 208 3 147 -34 262 -127
323 -262 32 -70 37 -89 42 -185 l5 -108 1143 0 1144 0 0 73 c0 236 139 425
354 479 88 22 140 23 220 2 220 -56 356 -237 356 -475 l0 -89 48 0 c87 0 266
20 312 35 80 26 126 87 100 134 -8 16 -7 33 5 73 8 29 15 89 15 136 0 72 -4
92 -24 126 -13 23 -34 75 -46 116 -12 41 -31 91 -41 111 -27 55 -103 116 -204
165 -93 44 -338 129 -467 160 -203 49 -218 55 -401 175 -274 179 -573 355
-704 415 -101 46 -220 81 -339 99 -337 50 -1559 70 -2129 35z m569 -130 c-1
-14 -9 -68 -18 -120 -8 -52 -25 -149 -36 -215 -11 -66 -22 -135 -25 -152 -4
-24 -2 -33 8 -33 11 0 15 -37 21 -182 8 -240 22 -289 110 -408 95 -128 129
-193 147 -284 15 -76 28 -103 52 -110 12 -3 226 -6 475 -6 422 0 453 1 460 18
14 35 5 977 -12 1212 -21 291 -21 290 3 290 25 0 28 -23 46 -395 20 -406 28
-834 18 -982 -4 -67 -7 -127 -5 -133 3 -7 164 -10 483 -10 l479 0 14 23 c8 12
20 45 26 72 14 64 23 89 79 210 l46 100 3 139 c4 160 -12 302 -36 329 -9 10
-29 67 -44 125 -38 144 -43 172 -30 172 5 0 45 -26 88 -57 44 -31 94 -67 113
-80 78 -53 180 -136 185 -149 9 -23 -16 -27 -133 -22 l-107 4 0 -245 1 -246
-46 -95 c-43 -89 -62 -143 -89 -248 -20 -78 62 -73 -1054 -70 l-998 3 -19 24
c-11 13 -22 35 -25 50 -27 134 -60 207 -139 312 -87 115 -114 180 -125 301 -5
57 -9 156 -10 221 0 64 -3 117 -7 117 -5 0 -84 5 -178 10 -93 5 -272 14 -397
19 -236 10 -257 15 -277 58 -18 38 21 143 107 288 51 87 79 114 137 130 46 13
342 32 580 38 136 4 130 5 129 -23z m1049 14 c9 -3 21 -13 26 -23 5 -9 13
-140 17 -289 l7 -272 -24 0 c-13 0 -109 4 -214 10 -104 5 -284 15 -400 20
-115 6 -236 13 -268 16 l-58 6 3 264 c3 222 5 266 18 275 15 10 855 3 893 -7z
m522 -44 c173 -32 334 -97 516 -207 66 -40 73 -51 81 -143 3 -33 2 -34 -35
-37 -63 -4 -69 -14 -65 -116 l3 -90 -180 7 c-99 4 -223 11 -275 16 -52 5 -130
10 -172 10 -53 0 -81 4 -91 14 -10 11 -17 51 -21 133 -4 65 -14 187 -22 271
-8 84 -12 158 -8 164 8 13 133 3 269 -22z m-2709 -567 c15 -16 16 -36 10 -212
-4 -114 -11 -200 -18 -208 -6 -8 -34 -13 -74 -13 -61 0 -64 1 -70 27 -10 37 3
310 18 372 l11 51 53 0 c36 0 58 -5 70 -17z m2248 -166 c20 -32 -16 -47 -117
-47 -89 0 -127 10 -127 33 0 31 24 38 129 35 88 -3 106 -6 115 -21z m457 7 c9
-11 10 -20 2 -32 -8 -14 -30 -18 -107 -20 -96 -3 -136 7 -136 31 0 30 25 37
126 37 80 0 104 -3 115 -16z m1964 -111 c51 -27 79 -57 104 -113 36 -79 32
-84 -51 -76 -96 9 -179 51 -268 135 -70 66 -85 97 -52 103 34 7 228 -29 267
-49z"/>
<path d="M1140 1740 c-157 -28 -283 -161 -311 -328 -18 -109 13 -217 88 -310
104 -128 312 -170 465 -94 221 109 289 372 149 576 -36 52 -116 115 -176 138
-51 20 -157 29 -215 18z m166 -195 c73 -37 108 -92 112 -177 4 -59 1 -73 -22
-113 -92 -156 -299 -143 -375 25 -27 59 -26 104 3 166 51 109 175 153 282 99z"/>
<path d="M4365 1741 c-125 -20 -240 -115 -287 -237 -37 -98 -42 -147 -24 -228
30 -127 106 -224 215 -274 49 -23 70 -26 166 -27 100 0 115 2 165 27 107 53
182 140 214 247 68 230 -100 475 -340 495 -33 2 -81 1 -109 -3z m136 -182
c106 -36 168 -150 139 -258 -17 -65 -91 -135 -158 -151 -94 -22 -188 24 -234
114 -27 53 -27 139 1 194 44 87 158 132 252 101z"/>
</g>
</svg>
