<?xml version="1.0" standalone="no"?>
<!DOCTYPE svg PUBLIC "-//W3C//DTD SVG 20010904//EN"
 "http://www.w3.org/TR/2001/REC-SVG-20010904/DTD/svg10.dtd">
<svg version="1.0" xmlns="http://www.w3.org/2000/svg"
 width="394.000000pt" height="329.000000pt" viewBox="0 0 394.000000 329.000000"
 preserveAspectRatio="xMidYMid meet">
<g transform="translate(0.000000,329.000000) scale(0.100000,-0.100000)"
fill="#000000" stroke="none">
<path d="M1715 2360 c-44 -4 -106 -15 -138 -24 -60 -17 -210 -114 -426 -274
-63 -47 -128 -88 -145 -92 -17 -5 -85 -11 -151 -15 -223 -12 -514 -54 -602
-87 -81 -30 -83 -36 -83 -228 l0 -166 -30 -11 c-29 -11 -30 -13 -30 -78 0
-100 15 -121 114 -155 66 -22 161 -27 172 -8 4 6 13 46 20 88 17 110 47 172
110 229 67 61 133 86 229 85 83 -1 143 -24 204 -80 60 -54 90 -111 110 -211
l17 -88 685 -3 c669 -2 686 -2 703 17 27 30 39 223 32 526 -6 259 -25 475 -45
513 -6 12 -26 31 -43 44 -33 23 -36 23 -328 24 -162 1 -331 -2 -375 -6z m600
-111 c13 -12 18 -46 22 -146 l6 -130 -34 -24 c-31 -22 -44 -24 -134 -24 l-100
0 -3 173 -2 174 114 -4 c89 -2 119 -7 131 -19z m-405 -46 c0 -32 -3 -109 -7
-170 l-6 -113 -110 0 c-107 0 -112 -1 -172 -35 l-62 -34 -169 -3 -169 -3 -3
53 c-2 34 2 60 10 69 7 9 65 55 128 103 235 177 260 188 448 189 l112 1 0 -57z
m-1482 -457 c2 -10 -10 -32 -30 -53 -28 -29 -34 -43 -38 -96 l-5 -62 -62 -3
-63 -3 0 121 0 121 97 -3 c86 -3 98 -5 101 -22z"/>
<path d="M2557 1618 c-3 -172 -10 -328 -15 -345 l-11 -33 94 0 c104 0 98 -5
110 82 9 65 68 179 112 219 63 54 138 83 219 83 60 0 81 -5 136 -32 108 -53
170 -144 190 -282 6 -42 16 -71 24 -74 18 -7 372 42 395 55 28 15 39 43 39
102 0 56 -8 67 -48 67 -15 0 -17 20 -17 208 0 140 -4 216 -12 235 l-13 27
-598 0 -599 0 -6 -312z m1181 51 l3 -127 -28 -5 c-49 -9 -63 7 -63 70 0 47 -4
60 -30 90 -28 32 -40 80 -23 97 4 4 37 6 73 4 l65 -3 3 -126z"/>
<path d="M669 1487 c-247 -70 -282 -406 -55 -525 43 -22 64 -27 131 -27 70 0
87 4 134 30 87 48 151 154 151 250 0 96 -75 211 -164 254 -58 27 -139 34 -197
18z m141 -139 c103 -53 112 -191 17 -262 -21 -16 -43 -21 -83 -20 -58 0 -91
17 -128 68 -29 38 -29 124 0 163 22 31 97 73 129 73 11 0 41 -10 65 -22z"/>
<path d="M2995 1487 c-61 -20 -97 -42 -132 -79 -128 -133 -91 -364 71 -443
119 -58 242 -40 331 48 174 174 67 463 -178 483 -29 2 -70 -2 -92 -9z m154
-144 c48 -37 66 -71 66 -128 0 -151 -187 -210 -272 -85 -31 44 -31 119 -1 168
41 67 146 90 207 45z"/>
</g>
</svg>
