<?xml version="1.0" standalone="no"?>
<!DOCTYPE svg PUBLIC "-//W3C//DTD SVG 20010904//EN"
 "http://www.w3.org/TR/2001/REC-SVG-20010904/DTD/svg10.dtd">
<svg version="1.0" xmlns="http://www.w3.org/2000/svg"
 width="375.000000pt" height="327.000000pt" viewBox="0 0 375.000000 327.000000"
 preserveAspectRatio="xMidYMid meet">
<g transform="translate(0.000000,327.000000) scale(0.100000,-0.100000)"
fill="#000000" stroke="none">
<path d="M1308 2269 c-204 -18 -379 -78 -687 -234 l-106 -54 -173 -14 c-125
-10 -177 -18 -188 -29 -15 -15 -33 -146 -34 -244 0 -44 -4 -54 -31 -79 -31
-27 -32 -29 -26 -93 8 -79 37 -142 77 -165 19 -12 93 -27 198 -42 229 -34 208
-38 215 42 12 124 90 232 194 267 202 69 400 -71 406 -286 l2 -73 733 -3 c402
-1 733 1 733 5 1 5 3 35 4 68 4 128 59 218 165 273 61 32 70 34 146 30 67 -4
90 -9 135 -35 96 -54 145 -139 158 -277 l6 -61 70 2 c102 4 234 22 272 38 33
14 45 46 23 60 -15 9 -12 57 5 79 23 31 19 109 -7 150 -13 19 -35 57 -50 85
-24 44 -36 54 -100 85 -122 58 -372 110 -661 137 l-137 13 -153 94 c-186 115
-389 215 -479 237 -130 31 -495 44 -710 24z m282 -81 c5 -23 36 -289 34 -291
-1 -1 -155 4 -341 12 -221 9 -340 17 -345 25 -4 6 -10 28 -14 50 -8 49 6 63
121 117 133 62 248 85 443 88 56 0 102 0 102 -1z m369 -25 c90 -18 152 -41
251 -95 74 -41 242 -149 290 -188 l25 -20 -125 5 c-360 16 -585 25 -609 25
-27 0 -28 1 -59 143 -18 78 -32 146 -32 150 0 11 168 -1 259 -20z m-1700 -322
c22 -30 61 -116 61 -132 0 -6 -29 -9 -67 -7 l-68 3 4 85 c2 47 5 88 8 93 7 11
40 -10 62 -42z m3190 -142 c21 -7 38 -24 51 -50 11 -21 20 -41 20 -44 0 -10
-172 -5 -193 6 -32 17 -87 71 -87 86 0 17 162 18 209 2z"/>
<path d="M780 1575 c-102 -32 -170 -128 -170 -240 0 -77 24 -130 83 -181 103
-91 235 -86 333 11 60 59 80 116 71 201 -10 100 -77 181 -173 210 -57 17 -85
17 -144 -1z m145 -124 c42 -25 70 -89 60 -137 -9 -50 -60 -100 -110 -110 -49
-9 -99 16 -132 65 -77 114 64 255 182 182z"/>
<path d="M2852 1575 c-166 -51 -227 -264 -114 -396 20 -23 59 -52 86 -65 92
-43 188 -28 266 43 141 127 87 364 -94 418 -60 18 -87 18 -144 0z m149 -128
c121 -81 28 -280 -112 -238 -76 23 -114 103 -84 179 32 78 125 107 196 59z"/>
</g>
</svg>
