<?xml version="1.0" standalone="no"?>
<!DOCTYPE svg PUBLIC "-//W3C//DTD SVG 20010904//EN"
 "http://www.w3.org/TR/2001/REC-SVG-20010904/DTD/svg10.dtd">
<svg version="1.0" xmlns="http://www.w3.org/2000/svg"
 width="382.000000pt" height="377.000000pt" viewBox="0 0 382.000000 377.000000"
 preserveAspectRatio="xMidYMid meet">
<g transform="translate(0.000000,377.000000) scale(0.100000,-0.100000)"
fill="#000000" stroke="none">
<path d="M2000 2579 c-19 -12 -50 -34 -68 -50 -26 -23 -42 -29 -80 -29 -84 0
-240 -29 -315 -58 -85 -33 -231 -130 -406 -270 l-123 -99 -147 -17 c-231 -27
-491 -65 -551 -82 -132 -38 -162 -71 -180 -200 -8 -58 -18 -88 -31 -100 -16
-15 -19 -31 -19 -118 0 -98 1 -103 30 -138 47 -57 119 -87 215 -90 l80 -3 13
60 c40 182 90 288 152 320 53 27 251 38 347 19 66 -13 126 -111 169 -275 15
-57 34 -110 43 -116 11 -10 165 -13 690 -13 372 0 681 4 688 8 7 4 17 30 23
57 20 91 61 202 91 248 20 30 46 54 77 69 42 21 61 23 192 23 128 0 149 -2
180 -20 46 -27 103 -140 132 -260 12 -49 26 -96 33 -103 9 -10 31 -10 116 3
233 35 228 33 260 78 28 39 29 43 29 166 0 104 -3 131 -17 151 -14 19 -19 53
-23 150 l-5 125 -59 115 c-32 63 -83 153 -112 200 l-53 85 30 13 c23 9 30 18
27 35 -3 20 -10 23 -101 30 -96 8 -99 9 -129 43 -59 67 -32 64 -625 64 -531 0
-538 0 -573 -21z m1030 -43 c0 -2 3 -11 6 -20 6 -14 -40 -16 -470 -16 -262 0
-476 2 -476 4 0 2 3 11 6 20 5 14 56 16 470 16 255 0 464 -2 464 -4z m-1071
-133 c0 -5 -10 -84 -22 -178 l-22 -170 -300 -12 c-165 -6 -336 -12 -379 -12
l-79 -1 19 21 c35 40 221 196 284 239 107 73 175 95 330 109 119 11 170 12
169 4z m692 -155 l26 -158 -21 0 c-12 0 -149 -7 -306 -14 -157 -8 -287 -13
-289 -11 -4 5 20 328 26 338 2 4 124 6 271 5 l266 -3 27 -157z m451 133 c18
-18 61 -134 72 -193 6 -32 3 -39 -16 -52 -28 -18 -354 -45 -367 -30 -5 5 -18
65 -30 134 -12 69 -25 136 -28 148 l-6 24 179 -7 c146 -6 182 -10 196 -24z
m428 -380 c5 -11 10 -63 10 -116 l0 -95 -27 6 c-16 4 -39 13 -53 20 -28 14
-150 131 -150 143 0 22 47 46 99 52 101 11 110 10 121 -10z m-3073 -138 c3 -7
-15 -32 -38 -57 -42 -46 -89 -68 -180 -82 -45 -7 -52 7 -41 81 6 39 13 52 32
62 33 17 222 13 227 -4z"/>
<path d="M654 1630 c-187 -74 -238 -320 -96 -466 54 -56 113 -79 202 -79 89 0
146 23 202 80 57 58 82 118 82 200 -1 78 -17 125 -63 184 -70 88 -217 125
-327 81z m193 -138 c44 -31 66 -84 61 -142 -6 -62 -37 -104 -93 -125 -60 -24
-107 -14 -158 34 -36 34 -41 44 -45 95 -4 48 -1 62 21 94 14 21 40 46 58 56
44 22 116 16 156 -12z"/>
<path d="M2789 1636 c-130 -46 -211 -170 -195 -300 12 -101 67 -180 160 -228
64 -34 184 -32 252 4 173 91 207 316 70 454 -78 77 -191 105 -287 70z m161
-138 c55 -38 75 -73 75 -133 0 -89 -60 -150 -148 -150 -66 0 -112 31 -139 93
-58 131 96 269 212 190z"/>
</g>
</svg>
